# xmcd CD database file
#
# Track frame offsets:
#	150
#	13296
#	29441
#	47680
#	63313
#	77700
#	99868
#	116713
#	129295
#	140863
#	154376
#	167238
#	181296
#	205863
#	224665
#	240514
#	258771
#
# Disc length: 3640 seconds
#
# Revision: 0
# Processed by: cddbd v1.5.2PL0 Copyright (c) Steve Scherf et al.
# Submitted via: CDex 1.70beta2
#
DISCID=f20e3611
DTITLE=Various Artists  - Indigo All-Star Swing and Dance Party
DYEAR=1999
DGENRE=Blues Modern Electric 1991-2000
TTITLE0=Love at first sight - Otis Grand and the Dancekings
TTITLE1=Didn't do me no good - Paul Lamb and the King Snakes
TTITLE2=Straight ahead no stopping - Richie Milton
TTITLE3=Home run hitter - Jerry Portnoy
TTITLE4=Just keep loving her - the Nightporters
TTITLE5=Love city - Richie Milton
TTITLE6=Burglar jump - Peter Golding
TTITLE7=You're so smart - Jerry Portnoy
TTITLE8=Don't mess with the boogie man - Big Joe Duskin
TTITLE9=Bone picking - Johny Whitehill
TTITLE10=Side tracked - Stan Webb
TTITLE11=Texas hop - Paul Lamb
TTITLE12=Thanks to the blues - Peter Golding
TTITLE13=When baby don't wanna play - Richie Milton
TTITLE14=Rockin' pneumonia and the boogie woogie flu - Alan Price and Zoot Money
TTITLE15=Hoochie coochie man - Herbie Goins
TTITLE16=Let's party - Otis Grand
EXTD=YEAR: 1999
EXTT0=
EXTT1=
EXTT2=
EXTT3=
EXTT4=
EXTT5=
EXTT6=
EXTT7=
EXTT8=
EXTT9=
EXTT10=
EXTT11=
EXTT12=
EXTT13=
EXTT14=
EXTT15=
EXTT16=
PLAYORDER=
